<mxfile host="app.diagrams.net" modified="2023-08-13T19:12:54.164Z" agent="Mozilla/5.0 (Windows NT 10.0; Win64; x64) AppleWebKit/537.36 (KHTML, like Gecko) Chrome/115.0.0.0 Safari/537.36 Edg/115.0.1901.188" etag="70LgR_XXhJp9C05cGuV9" version="21.6.8" type="device">
  <diagram name="Page-1" id="d2JaqIGxsQIN07TNBCH5">
    <mxGraphModel dx="996" dy="581" grid="1" gridSize="10" guides="1" tooltips="1" connect="1" arrows="1" fold="1" page="1" pageScale="1" pageWidth="850" pageHeight="1100" math="0" shadow="0">
      <root>
        <mxCell id="0" />
        <mxCell id="1" parent="0" />
        <mxCell id="JNr4aYqJF-1zoNr9De3q-1" value="onAddToCart" style="rounded=1;whiteSpace=wrap;html=1;fillColor=#d5e8d4;strokeColor=#82b366;" vertex="1" parent="1">
          <mxGeometry x="365" y="60" width="120" height="60" as="geometry" />
        </mxCell>
        <mxCell id="JNr4aYqJF-1zoNr9De3q-2" value="Product Model" style="text;html=1;align=center;verticalAlign=middle;resizable=0;points=[];autosize=1;strokeColor=none;fillColor=none;" vertex="1" parent="1">
          <mxGeometry x="165" y="140" width="100" height="30" as="geometry" />
        </mxCell>
        <mxCell id="JNr4aYqJF-1zoNr9De3q-3" value="addToCart&lt;br&gt;(child component)&lt;br&gt;[@Output()]" style="text;html=1;strokeColor=none;fillColor=none;align=center;verticalAlign=middle;whiteSpace=wrap;rounded=0;" vertex="1" parent="1">
          <mxGeometry x="370" y="210" width="110" height="30" as="geometry" />
        </mxCell>
        <mxCell id="JNr4aYqJF-1zoNr9De3q-4" value="" style="endArrow=classic;html=1;rounded=0;exitX=0.5;exitY=1;exitDx=0;exitDy=0;entryX=0.5;entryY=-0.333;entryDx=0;entryDy=0;entryPerimeter=0;" edge="1" parent="1" source="JNr4aYqJF-1zoNr9De3q-1" target="JNr4aYqJF-1zoNr9De3q-3">
          <mxGeometry width="50" height="50" relative="1" as="geometry">
            <mxPoint x="400" y="330" as="sourcePoint" />
            <mxPoint x="450" y="280" as="targetPoint" />
          </mxGeometry>
        </mxCell>
        <mxCell id="JNr4aYqJF-1zoNr9De3q-5" value="" style="endArrow=classic;html=1;rounded=0;exitX=1.016;exitY=0.54;exitDx=0;exitDy=0;exitPerimeter=0;" edge="1" parent="1" source="JNr4aYqJF-1zoNr9De3q-2">
          <mxGeometry width="50" height="50" relative="1" as="geometry">
            <mxPoint x="405" y="320" as="sourcePoint" />
            <mxPoint x="425" y="156" as="targetPoint" />
          </mxGeometry>
        </mxCell>
        <mxCell id="JNr4aYqJF-1zoNr9De3q-6" value="(addToCart)=&quot;onAddToCart($event)&quot;&lt;br&gt;(parent component)&lt;br&gt;[@Output(), home.component.html]" style="text;html=1;strokeColor=none;fillColor=none;align=center;verticalAlign=middle;whiteSpace=wrap;rounded=0;" vertex="1" parent="1">
          <mxGeometry x="323" y="330" width="205" height="30" as="geometry" />
        </mxCell>
        <mxCell id="JNr4aYqJF-1zoNr9De3q-7" value="" style="endArrow=classic;html=1;rounded=0;exitX=0.5;exitY=1;exitDx=0;exitDy=0;" edge="1" parent="1" source="JNr4aYqJF-1zoNr9De3q-3" target="JNr4aYqJF-1zoNr9De3q-6">
          <mxGeometry width="50" height="50" relative="1" as="geometry">
            <mxPoint x="426" y="250" as="sourcePoint" />
            <mxPoint x="450" y="280" as="targetPoint" />
          </mxGeometry>
        </mxCell>
        <mxCell id="JNr4aYqJF-1zoNr9De3q-8" value="OnAddToCart&lt;br&gt;[home.component.ts]" style="rounded=0;whiteSpace=wrap;html=1;fillColor=#dae8fc;strokeColor=#6c8ebf;" vertex="1" parent="1">
          <mxGeometry x="358" y="435" width="134.5" height="40" as="geometry" />
        </mxCell>
        <mxCell id="JNr4aYqJF-1zoNr9De3q-9" value="" style="endArrow=classic;html=1;rounded=0;entryX=0.5;entryY=0;entryDx=0;entryDy=0;exitX=0.5;exitY=1;exitDx=0;exitDy=0;" edge="1" parent="1" source="JNr4aYqJF-1zoNr9De3q-6" target="JNr4aYqJF-1zoNr9De3q-8">
          <mxGeometry width="50" height="50" relative="1" as="geometry">
            <mxPoint x="430" y="380" as="sourcePoint" />
            <mxPoint x="450" y="370" as="targetPoint" />
          </mxGeometry>
        </mxCell>
        <mxCell id="JNr4aYqJF-1zoNr9De3q-10" value="CartService" style="swimlane;fontStyle=0;childLayout=stackLayout;horizontal=1;startSize=30;horizontalStack=0;resizeParent=1;resizeParentMax=0;resizeLast=0;collapsible=1;marginBottom=0;whiteSpace=wrap;html=1;" vertex="1" parent="1">
          <mxGeometry x="100" y="380" width="140" height="90" as="geometry" />
        </mxCell>
        <mxCell id="JNr4aYqJF-1zoNr9De3q-11" value="cart (subscribe)" style="text;strokeColor=none;fillColor=none;align=left;verticalAlign=middle;spacingLeft=4;spacingRight=4;overflow=hidden;points=[[0,0.5],[1,0.5]];portConstraint=eastwest;rotatable=0;whiteSpace=wrap;html=1;" vertex="1" parent="JNr4aYqJF-1zoNr9De3q-10">
          <mxGeometry y="30" width="140" height="30" as="geometry" />
        </mxCell>
        <mxCell id="JNr4aYqJF-1zoNr9De3q-12" value="addToCart (update cart)" style="text;strokeColor=none;fillColor=none;align=left;verticalAlign=middle;spacingLeft=4;spacingRight=4;overflow=hidden;points=[[0,0.5],[1,0.5]];portConstraint=eastwest;rotatable=0;whiteSpace=wrap;html=1;" vertex="1" parent="JNr4aYqJF-1zoNr9De3q-10">
          <mxGeometry y="60" width="140" height="30" as="geometry" />
        </mxCell>
        <mxCell id="JNr4aYqJF-1zoNr9De3q-14" value="" style="endArrow=classic;html=1;rounded=0;exitX=0;exitY=0.5;exitDx=0;exitDy=0;entryX=1;entryY=0.5;entryDx=0;entryDy=0;" edge="1" parent="1" source="JNr4aYqJF-1zoNr9De3q-8" target="JNr4aYqJF-1zoNr9De3q-12">
          <mxGeometry width="50" height="50" relative="1" as="geometry">
            <mxPoint x="400" y="510" as="sourcePoint" />
            <mxPoint x="310" y="420" as="targetPoint" />
          </mxGeometry>
        </mxCell>
        <mxCell id="JNr4aYqJF-1zoNr9De3q-15" value="Update cart&lt;br&gt;[ngOnInit(), app.component.ts]" style="text;html=1;strokeColor=none;fillColor=none;align=center;verticalAlign=middle;whiteSpace=wrap;rounded=0;" vertex="1" parent="1">
          <mxGeometry x="85" y="550" width="170" height="30" as="geometry" />
        </mxCell>
        <mxCell id="JNr4aYqJF-1zoNr9De3q-16" value="" style="endArrow=classic;html=1;rounded=0;entryX=0.5;entryY=0;entryDx=0;entryDy=0;exitX=0.509;exitY=1.047;exitDx=0;exitDy=0;exitPerimeter=0;" edge="1" parent="1" source="JNr4aYqJF-1zoNr9De3q-12" target="JNr4aYqJF-1zoNr9De3q-15">
          <mxGeometry width="50" height="50" relative="1" as="geometry">
            <mxPoint x="180" y="500" as="sourcePoint" />
            <mxPoint x="450" y="460" as="targetPoint" />
          </mxGeometry>
        </mxCell>
        <mxCell id="JNr4aYqJF-1zoNr9De3q-17" value="&amp;lt;app-header [cart]=&quot;cart&quot;&amp;gt;&amp;lt;/app-header&amp;gt;" style="text;html=1;strokeColor=none;fillColor=none;align=center;verticalAlign=middle;whiteSpace=wrap;rounded=0;" vertex="1" parent="1">
          <mxGeometry x="280" y="630" width="260" height="30" as="geometry" />
        </mxCell>
        <mxCell id="JNr4aYqJF-1zoNr9De3q-18" value="" style="endArrow=classic;html=1;rounded=0;exitX=1;exitY=0;exitDx=0;exitDy=0;entryX=0.538;entryY=0.333;entryDx=0;entryDy=0;entryPerimeter=0;" edge="1" parent="1" source="JNr4aYqJF-1zoNr9De3q-15" target="JNr4aYqJF-1zoNr9De3q-17">
          <mxGeometry width="50" height="50" relative="1" as="geometry">
            <mxPoint x="400" y="680" as="sourcePoint" />
            <mxPoint x="450" y="580" as="targetPoint" />
            <Array as="points">
              <mxPoint x="420" y="550" />
            </Array>
          </mxGeometry>
        </mxCell>
        <mxCell id="JNr4aYqJF-1zoNr9De3q-19" value="Ser cart property&lt;br&gt;[@Input(), header.component.ts]" style="text;html=1;strokeColor=none;fillColor=none;align=center;verticalAlign=middle;whiteSpace=wrap;rounded=0;" vertex="1" parent="1">
          <mxGeometry x="298" y="710" width="182" height="30" as="geometry" />
        </mxCell>
        <mxCell id="JNr4aYqJF-1zoNr9De3q-20" value="" style="endArrow=classic;html=1;rounded=0;exitX=0.418;exitY=1.033;exitDx=0;exitDy=0;exitPerimeter=0;entryX=0.5;entryY=0;entryDx=0;entryDy=0;" edge="1" parent="1" source="JNr4aYqJF-1zoNr9De3q-17" target="JNr4aYqJF-1zoNr9De3q-19">
          <mxGeometry width="50" height="50" relative="1" as="geometry">
            <mxPoint x="400" y="680" as="sourcePoint" />
            <mxPoint x="450" y="630" as="targetPoint" />
          </mxGeometry>
        </mxCell>
        <mxCell id="JNr4aYqJF-1zoNr9De3q-21" value="Display value&lt;br&gt;[header.component.html]" style="text;html=1;strokeColor=none;fillColor=none;align=center;verticalAlign=middle;whiteSpace=wrap;rounded=0;" vertex="1" parent="1">
          <mxGeometry x="318.5" y="800" width="141" height="30" as="geometry" />
        </mxCell>
        <mxCell id="JNr4aYqJF-1zoNr9De3q-22" value="" style="endArrow=classic;html=1;rounded=0;exitX=0.5;exitY=1;exitDx=0;exitDy=0;entryX=0.5;entryY=0;entryDx=0;entryDy=0;" edge="1" parent="1" source="JNr4aYqJF-1zoNr9De3q-19" target="JNr4aYqJF-1zoNr9De3q-21">
          <mxGeometry width="50" height="50" relative="1" as="geometry">
            <mxPoint x="400" y="680" as="sourcePoint" />
            <mxPoint x="450" y="630" as="targetPoint" />
          </mxGeometry>
        </mxCell>
        <mxCell id="JNr4aYqJF-1zoNr9De3q-23" value="child&amp;nbsp; &amp;nbsp; parent" style="text;html=1;strokeColor=none;fillColor=none;align=center;verticalAlign=middle;whiteSpace=wrap;rounded=0;" vertex="1" parent="1">
          <mxGeometry x="365" y="610" width="90" height="30" as="geometry" />
        </mxCell>
        <mxCell id="JNr4aYqJF-1zoNr9De3q-24" value="@Input()&lt;br&gt;parent -&amp;gt; child" style="text;html=1;strokeColor=none;fillColor=none;align=center;verticalAlign=middle;whiteSpace=wrap;rounded=0;" vertex="1" parent="1">
          <mxGeometry x="395" y="670" width="90" height="30" as="geometry" />
        </mxCell>
      </root>
    </mxGraphModel>
  </diagram>
</mxfile>
